# xmcd
#
# Track frame offsets: 
#        150
#        13740
#        25872
#        39400
#        51413
#        61755
#        73686
#        86424
#        97161
#        108171
#        119181
#        131148
#        144596
#        155696
#
# Disc length: 2246 seconds
#
# Revision: 2
# Processed by: cddbd v1.5.2PL0 Copyright (c) Steve Scherf et al.
# Submitted via: ExactAudioCopy v1.1
#
DISCID=c908c40e
DTITLE=German Beer Drinking Music - CD 4 - Egerländer Blasmusik
DYEAR=1900
DGENRE=
TTITLE0=Saatzer Schützenmarsch
TTITLE1=Musikanten-Polka
TTITLE2=Die alte Spieluhr
TTITLE3=Obernitzer Polka
TTITLE4=Wo hast du dein Herz versteckt
TTITLE5=Egerländer Musikanten
TTITLE6=Schafskopf-Polka
TTITLE7=Egerländer Marsch
TTITLE8=Hochzeit-Polka
TTITLE9=Wo der alte Brunnen steht
TTITLE10=Kreuzfidel
TTITLE11=Der alte Lindenbaum
TTITLE12=So wie damals, wie daheim
TTITLE13=Selige Zeit, wohin bist du entschwunden
EXTD=
EXTT0=
EXTT1=
EXTT2=
EXTT3=
EXTT4=
EXTT5=
EXTT6=
EXTT7=
EXTT8=
EXTT9=
EXTT10=
EXTT11=
EXTT12=
EXTT13=
PLAYORDER=
